<svg width="88" height="27" viewBox="0 0 88 27" fill="none" xmlns="http://www.w3.org/2000/svg">
<g clip-path="url(#clip0)">
<path d="M21.9961 17.5615L23.5724 9.66602H26.8118L26.2791 12.3721H30.0623L30.595 9.66602H33.8345L32.2581 17.5615H29.0295L29.6056 14.6537H25.8227L25.2465 17.5615H21.9961Z" fill="#00559E"/>
<path d="M41.1719 12.3188C40.853 11.9934 40.3275 11.8306 39.5956 11.8306C38.6534 11.8306 37.9867 12.0997 37.5954 12.6372C37.349 12.9767 37.2258 13.3978 37.2258 13.9C37.2258 14.2893 37.349 14.6076 37.5954 14.8552C37.9142 15.1877 38.4361 15.3538 39.1608 15.3538C40.1175 15.3538 40.7877 15.0884 41.172 14.5579C41.4112 14.2254 41.5307 13.8009 41.5307 13.2845C41.5307 12.8956 41.4112 12.5735 41.172 12.3188H41.1719ZM39.8456 9.52783C41.1791 9.52783 42.2518 9.72941 43.0635 10.1327C43.7593 10.4722 44.2556 10.9428 44.5529 11.544C44.7919 12.0324 44.9115 12.5771 44.9115 13.1783C44.9115 13.8931 44.7847 14.5404 44.5312 15.1204C44.1832 15.8916 43.6468 16.4894 42.922 16.9138C42.0162 17.4375 40.8385 17.6992 39.389 17.6992H38.8999C37.559 17.6992 36.4865 17.494 35.6819 17.0836C34.9863 16.7299 34.4897 16.249 34.1927 15.6404C33.9535 15.1665 33.834 14.6217 33.834 14.0062C33.834 13.2917 33.9644 12.6514 34.2254 12.0853C34.566 11.3212 35.1021 10.7269 35.8342 10.3025C36.7328 9.78614 37.9069 9.52783 39.3564 9.52783H39.8455H39.8456Z" fill="#00559E"/>
<path d="M0.455078 26.9999V0L12.6869 6.75001L24.9182 13.5L12.6869 20.2499L0.455078 26.9999Z" fill="url(#paint0_linear)"/>
<path d="M54.7384 10.1115C55.4341 10.4298 55.9051 10.8755 56.1516 11.4486C56.2748 11.7457 56.3366 12.0852 56.3366 12.4674C56.3366 12.6372 56.3256 12.8035 56.3037 12.9662H52.9231C52.9231 12.6973 52.8395 12.478 52.673 12.3083C52.347 11.99 51.7815 11.8306 50.9771 11.8306C50.1002 11.8306 49.4805 12.082 49.1181 12.5841C48.8572 12.938 48.7266 13.366 48.7266 13.8682C48.7266 14.2787 48.8426 14.6075 49.0748 14.8552C49.3644 15.1877 49.8536 15.354 50.5423 15.354C51.3032 15.354 51.883 15.1877 52.2816 14.8552C52.4337 14.7209 52.5352 14.597 52.586 14.4838C52.6079 14.4484 52.6367 14.3705 52.6731 14.2503H56.0539C55.9524 14.8729 55.7894 15.3789 55.5648 15.7678C55.2096 16.362 54.7022 16.8114 54.0429 17.1156C53.1948 17.5049 52.1077 17.6992 50.7814 17.6992H50.3032C48.9768 17.6992 47.9151 17.5013 47.1179 17.1048C46.4441 16.7725 45.9618 16.302 45.6722 15.6935C45.44 15.2196 45.3242 14.6466 45.3242 13.9743C45.3242 13.3022 45.451 12.6833 45.7047 12.1172C46.0453 11.3604 46.5744 10.7625 47.292 10.3238C48.1687 9.79322 49.3177 9.52783 50.738 9.52783H51.2164C52.6948 9.52783 53.8689 9.72256 54.7385 10.1115H54.7384Z" fill="#00559E"/>
<path d="M59.4134 17.5615H56.1738L57.7501 9.66602H60.9788L60.4026 12.5844L63.8161 9.66602H67.6753L63.2074 13.391L66.4143 17.5615H62.6095L60.0873 14.1445L59.4134 17.5615Z" fill="#00559E"/>
<path d="M68.0782 9.66602H76.3508L75.9488 11.6505H70.9372L70.7632 12.542H75.6228L75.2097 14.5688H70.3612L70.1653 15.5558H75.2529L74.8509 17.5615H66.502L68.0782 9.66602Z" fill="#00559E"/>
<path d="M78.9711 17.5615L79.5256 14.7812L76.2969 9.66602H79.9931L81.5477 12.2873L84.1892 9.66602H87.8853L82.7543 14.7812L82.1998 17.5615H78.9711Z" fill="#00559E"/>
<path d="M0 17.7056L1.58568 9.7627H4.84487L3.26994 17.7056H0Z" fill="white"/>
<path d="M8.98218 17.9351H5.78906L7.37475 9.99219H10.6886L13.9255 14.241L14.7789 9.99219H17.961L16.3753 17.9351H13.2696L9.86851 13.4832L8.98218 17.9351Z" fill="white"/>
<path fill-rule="evenodd" clip-rule="evenodd" d="M24.9175 13.5003L22.5456 14.8093L21.9961 17.5615H25.2465L25.8227 14.6537H29.6056L29.0295 17.5615H32.2581L33.8345 9.66602H30.595L30.0623 12.3721H26.2791L26.8118 9.66602H23.5724L23.0164 12.4511L24.9175 13.5003Z" fill="#1362A5" stroke="#2B2B2A" stroke-width="0.200012" stroke-miterlimit="22.9256"/>
<path fill-rule="evenodd" clip-rule="evenodd" d="M34.2254 12.0853C33.9643 12.6514 33.834 13.2917 33.834 14.0062C33.834 14.6217 33.9535 15.1665 34.1927 15.6404C34.4897 16.249 34.9863 16.73 35.6819 17.0836C36.4865 17.494 37.559 17.6992 38.8999 17.6992H39.389C40.8385 17.6992 42.0162 17.4375 42.922 16.9138C43.6468 16.4895 44.1831 15.8916 44.5312 15.1204C44.7847 14.5404 44.9115 13.8931 44.9115 13.1783C44.9115 12.5771 44.7919 12.0324 44.5529 11.544C44.2556 10.9428 43.7593 10.4722 43.0635 10.1327C42.2518 9.72941 41.1791 9.52783 39.8456 9.52783H39.3565C37.9069 9.52783 36.7329 9.78614 35.8342 10.3025C35.1022 10.7269 34.566 11.3212 34.2255 12.0853H34.2254ZM37.2257 13.8999C37.2257 13.3977 37.3489 12.9767 37.5954 12.6372C37.9866 12.0996 38.6533 11.8306 39.5956 11.8306C40.3274 11.8306 40.853 11.9934 41.1719 12.3187C41.411 12.5734 41.5306 12.8955 41.5306 13.2845C41.5306 13.8009 41.411 14.2254 41.1719 14.5578C40.7876 15.0884 40.1174 15.3538 39.1607 15.3538C38.436 15.3538 37.9141 15.1876 37.5953 14.8551C37.3488 14.6074 37.2257 14.2891 37.2257 13.8999H37.2257Z" fill="#1362A5" stroke="#2B2B2A" stroke-width="0.200012" stroke-miterlimit="22.9256"/>
<path fill-rule="evenodd" clip-rule="evenodd" d="M45.7047 12.1172C45.451 12.6833 45.3242 13.3023 45.3242 13.9743C45.3242 14.6466 45.4401 15.2195 45.6722 15.6935C45.9618 16.3021 46.4441 16.7726 47.1179 17.1048C47.9151 17.5013 48.9768 17.6992 50.3031 17.6992H50.7814C52.1077 17.6992 53.1948 17.5048 54.0429 17.1156C54.7022 16.8115 55.2096 16.3621 55.5648 15.7678C55.7894 15.3789 55.9524 14.8729 56.0539 14.2503H52.6731C52.6367 14.3705 52.6079 14.4483 52.586 14.4838C52.5352 14.597 52.4337 14.7209 52.2816 14.8552C51.883 15.1877 51.3032 15.354 50.5423 15.354C49.8536 15.354 49.3645 15.1877 49.0748 14.8552C48.8426 14.6075 48.7266 14.2787 48.7266 13.8682C48.7266 13.366 48.8572 12.938 49.1181 12.5841C49.4805 12.0819 50.1002 11.8306 50.9771 11.8306C51.7815 11.8306 52.3469 11.99 52.673 12.3083C52.8395 12.478 52.9231 12.6973 52.9231 12.9662H56.3037C56.3256 12.8035 56.3365 12.6372 56.3365 12.4674C56.3365 12.0853 56.2748 11.7457 56.1516 11.4486C55.9051 10.8755 55.4341 10.4298 54.7384 10.1115C53.8687 9.72251 52.6947 9.52783 51.2162 9.52783H50.7378C49.3175 9.52783 48.1686 9.79316 47.2918 10.3238C46.5743 10.7624 46.0451 11.3603 45.7045 12.1172H45.7047Z" fill="#1362A5" stroke="#2B2B2A" stroke-width="0.200012" stroke-miterlimit="22.9256"/>
<path fill-rule="evenodd" clip-rule="evenodd" d="M32.2581 17.5615L33.8345 9.66602H30.595L30.0623 12.3721H26.2791L26.8118 9.66602H23.5724L23.0164 12.4511L24.9175 13.5003L22.5456 14.8093L21.9961 17.5615H25.2465L25.8227 14.6537H29.6056L29.0295 17.5615H32.2581Z" fill="#232261" stroke="#2B2B2A" stroke-width="0.200012" stroke-miterlimit="22.9256"/>
<path fill-rule="evenodd" clip-rule="evenodd" d="M33.834 14.0062C33.834 14.6217 33.9535 15.1665 34.1927 15.6404C34.4897 16.249 34.9863 16.73 35.6819 17.0836C36.4865 17.494 37.559 17.6992 38.8999 17.6992H39.389C40.8385 17.6992 42.0162 17.4375 42.922 16.9138C43.6468 16.4895 44.1831 15.8916 44.5312 15.1204C44.7847 14.5404 44.9115 13.8931 44.9115 13.1783C44.9115 12.5771 44.7919 12.0324 44.5529 11.544C44.2556 10.9428 43.7593 10.4722 43.0635 10.1327C42.2518 9.72941 41.1791 9.52783 39.8456 9.52783H39.3565C37.9069 9.52783 36.7329 9.78614 35.8342 10.3025C35.1022 10.7269 34.566 11.3212 34.2255 12.0853C33.9644 12.6514 33.834 13.2917 33.834 14.0062H33.834ZM37.2257 13.9C37.2257 13.3978 37.3489 12.9767 37.5954 12.6372C37.9866 12.0997 38.6533 11.8306 39.5956 11.8306C40.3274 11.8306 40.853 11.9934 41.1719 12.3188C41.411 12.5734 41.5306 12.8956 41.5306 13.2845C41.5306 13.8009 41.411 14.2254 41.1719 14.5579C40.7876 15.0884 40.1174 15.3538 39.1607 15.3538C38.436 15.3538 37.9141 15.1877 37.5953 14.8552C37.3488 14.6075 37.2257 14.2892 37.2257 13.9H37.2257Z" fill="#232261" stroke="#2B2B2A" stroke-width="0.200012" stroke-miterlimit="22.9256"/>
<path fill-rule="evenodd" clip-rule="evenodd" d="M45.7047 12.1172C45.451 12.6833 45.3242 13.3023 45.3242 13.9743C45.3242 14.6466 45.4401 15.2195 45.6722 15.6935C45.9618 16.3021 46.4441 16.7726 47.1179 17.1048C47.9151 17.5013 48.9768 17.6992 50.3031 17.6992H50.7814C52.1077 17.6992 53.1948 17.5048 54.0429 17.1156C54.7022 16.8115 55.2096 16.3621 55.5648 15.7678C55.7894 15.3789 55.9524 14.8729 56.0539 14.2503H52.6731C52.6367 14.3705 52.6079 14.4483 52.586 14.4838C52.5352 14.597 52.4337 14.7209 52.2816 14.8552C51.883 15.1877 51.3032 15.354 50.5423 15.354C49.8536 15.354 49.3645 15.1877 49.0748 14.8552C48.8426 14.6075 48.7266 14.2787 48.7266 13.8682C48.7266 13.366 48.8572 12.938 49.1181 12.5841C49.4805 12.0819 50.1002 11.8306 50.9771 11.8306C51.7815 11.8306 52.3469 11.99 52.673 12.3083C52.8395 12.478 52.9231 12.6973 52.9231 12.9662H56.3037C56.3256 12.8035 56.3365 12.6372 56.3365 12.4674C56.3365 12.0853 56.2748 11.7457 56.1516 11.4486C55.9051 10.8755 55.4341 10.4298 54.7384 10.1115C53.8687 9.72251 52.6947 9.52783 51.2162 9.52783H50.7378C49.3175 9.52783 48.1686 9.79316 47.2918 10.3238C46.5743 10.7624 46.0451 11.3603 45.7045 12.1172H45.7047Z" fill="#232261" stroke="#2B2B2A" stroke-width="0.200012" stroke-miterlimit="22.9256"/>
<path fill-rule="evenodd" clip-rule="evenodd" d="M57.7501 9.66602L56.1738 17.5615H59.4134L60.0873 14.1445L62.6095 17.5615H66.4143L63.2074 13.391L67.6753 9.66602H63.8161L60.4026 12.5844L60.9788 9.66602H57.7501Z" fill="#232261" stroke="#2B2B2A" stroke-width="0.200012" stroke-miterlimit="22.9256"/>
<path fill-rule="evenodd" clip-rule="evenodd" d="M68.0782 9.66602L66.502 17.5615H74.8509L75.2529 15.5558H70.1653L70.3612 14.5688H75.2097L75.6228 12.542H70.7632L70.9372 11.6505H75.9488L76.3377 9.73085L76.2968 9.66602H68.0782Z" fill="#232261" stroke="#2B2B2A" stroke-width="0.200012" stroke-miterlimit="22.9256"/>
<path fill-rule="evenodd" clip-rule="evenodd" d="M76.3378 9.73091L79.5256 14.7812L78.9711 17.5615H82.1998L82.7543 14.7812L87.8853 9.66602H84.1892L81.5477 12.2873L79.9931 9.66602L76.351 9.66607L76.2969 9.66602L76.3378 9.73091Z" fill="#232261" stroke="#2B2B2A" stroke-width="0.200012" stroke-miterlimit="22.9256"/>
</g>
<defs>
<linearGradient id="paint0_linear" x1="19.6444" y1="13.7389" x2="0.793707" y2="13.734" gradientUnits="userSpaceOnUse">
<stop stop-color="#0768BD"/>
<stop offset="0.988235" stop-color="#83B3DE"/>
<stop offset="1" stop-color="white"/>
</linearGradient>
<clipPath id="clip0">
<rect width="88" height="27" fill="white"/>
</clipPath>
</defs>
</svg>
