<svg width="16" height="16" viewBox="0 0 16 16" fill="none" xmlns="http://www.w3.org/2000/svg">
<path d="M7.99935 5.65697C6.70912 5.65697 5.65619 6.7099 5.65619 8.00013C5.65619 9.29037 6.70912 10.3433 7.99935 10.3433C9.28958 10.3433 10.3425 9.29037 10.3425 8.00013C10.3425 6.7099 9.28958 5.65697 7.99935 5.65697ZM15.0271 8.00013C15.0271 7.02982 15.0359 6.0683 14.9814 5.09974C14.9269 3.97474 14.6702 2.9763 13.8476 2.15365C13.0232 1.32923 12.0265 1.07435 10.9015 1.01986C9.93119 0.965367 8.96966 0.974156 8.00111 0.974156C7.0308 0.974156 6.06927 0.965367 5.10072 1.01986C3.97572 1.07435 2.97728 1.33099 2.15462 2.15365C1.33021 2.97806 1.07533 3.97474 1.02084 5.09974C0.966343 6.07005 0.975132 7.03158 0.975132 8.00013C0.975132 8.96869 0.966343 9.93197 1.02084 10.9005C1.07533 12.0255 1.33197 13.024 2.15462 13.8466C2.97904 14.671 3.97572 14.9259 5.10072 14.9804C6.07103 15.0349 7.03255 15.0261 8.00111 15.0261C8.97142 15.0261 9.93294 15.0349 10.9015 14.9804C12.0265 14.9259 13.0249 14.6693 13.8476 13.8466C14.672 13.0222 14.9269 12.0255 14.9814 10.9005C15.0376 9.93197 15.0271 8.97044 15.0271 8.00013ZM7.99935 11.6054C6.00423 11.6054 4.39408 9.99525 4.39408 8.00013C4.39408 6.00501 6.00423 4.39486 7.99935 4.39486C9.99447 4.39486 11.6046 6.00501 11.6046 8.00013C11.6046 9.99525 9.99447 11.6054 7.99935 11.6054ZM11.7523 5.08919C11.2865 5.08919 10.9103 4.71302 10.9103 4.2472C10.9103 3.78138 11.2865 3.40521 11.7523 3.40521C12.2181 3.40521 12.5943 3.78138 12.5943 4.2472C12.5944 4.35781 12.5727 4.46737 12.5305 4.56958C12.4882 4.6718 12.4262 4.76468 12.348 4.84289C12.2698 4.9211 12.1769 4.98312 12.0747 5.02538C11.9724 5.06765 11.8629 5.08933 11.7523 5.08919Z" fill="#12181F"/>
</svg>
