<svg width="48" height="91" viewBox="0 0 48 91" fill="none" xmlns="http://www.w3.org/2000/svg">
<path d="M28.8389 72.8209H28.9795C36.7906 72.8209 42.2233 67.4413 42.2233 59.6647V13.1563C42.2233 5.37963 36.8102 0 28.9795 0H13.2478C5.41705 0 0 5.37963 0 13.1563V56.2088C0.390559 55.7706 0.781117 55.3168 1.19902 54.8475C2.67923 50.3871 3.93293 47.6798 5.86229 45.9965C6.17874 45.7296 6.44346 45.4075 6.6434 45.0462C6.58873 44.9648 6.4989 44.8561 6.42079 44.7359C6.31909 44.5678 6.26182 44.3769 6.25431 44.1809C6.2468 43.985 6.28929 43.7903 6.37782 43.615C7.49868 40.589 8.95671 37.697 10.7247 34.9928C10.674 34.4886 10.6193 34.1085 10.6115 33.6625C10.6072 33.3651 10.702 33.0747 10.881 32.8363C11.3396 32.2073 11.8406 31.6099 12.3807 31.0483C11.6267 29.4511 10.9605 27.8145 10.385 26.1457C10.118 25.3342 10.0925 24.4635 10.3114 23.6379C10.5303 22.8124 10.9844 22.0671 11.6191 21.4914C13.1814 20.1261 14.4038 19.3039 16.7862 17.9735C16.4187 16.6305 16.1666 15.2591 16.0324 13.8738C16.0044 13.6431 16.0257 13.4092 16.0949 13.1873C16.4354 12.2282 16.8669 11.3036 17.3838 10.4257C17.4346 10.3236 17.513 10.2376 17.6103 10.1773C17.7075 10.117 17.8198 10.0849 17.9345 10.0844C19.0128 10.0384 20.0868 9.91921 21.1488 9.72756C21.2617 9.70133 21.3794 9.7028 21.4917 9.73186C21.604 9.76092 21.7075 9.81668 21.7932 9.89434C22.5946 10.6096 23.2394 11.481 23.6874 12.4542C23.7806 12.6469 23.8501 12.8501 23.8944 13.0593C24.0272 13.6837 24.1365 14.2539 24.2849 14.9986C25.4837 14.7938 26.6942 14.6642 27.9093 14.6107C29.0029 14.5797 29.7957 15.1343 30.2136 16.2553C30.7751 17.9166 31.1842 19.625 31.4361 21.3595C32.4982 21.9896 33.375 22.8857 33.9786 23.9582C34.0546 24.084 34.0859 24.2315 34.0675 24.377C34.0491 24.5226 33.982 24.6578 33.8771 24.7611C33.552 25.0951 33.1934 25.3953 32.8069 25.657C32.6354 25.7821 32.5094 25.959 32.4476 26.1612C32.1432 26.9495 31.6854 27.6705 31.1002 28.2828V35.8772C31.5378 36.2386 31.8846 36.6963 32.1131 37.2141C32.3415 37.7318 32.4454 38.2953 32.4164 38.8598C32.3811 39.3286 32.2467 39.7847 32.0219 40.1984C31.7972 40.6121 31.4871 40.974 31.1119 41.2607C31.1119 41.2607 31.1119 60.4598 31.1119 61.22C31.1119 61.8639 31.3541 62.1742 31.7602 62.1742C32.4281 62.1742 33.3225 61.6622 34.1895 60.7468C34.8808 60.0254 35.0839 59.5134 35.5643 59.5134C36.0447 59.5134 36.1032 61.1812 35.7791 62.0539C35.5459 62.6316 35.1762 63.1451 34.7011 63.5511C33.7911 64.416 32.2602 65.2654 31.065 65.2654C30.0965 65.2654 29.3622 64.7883 29.3622 62.4224V41.2141C28.401 40.8083 27.4934 40.2873 26.6595 39.6627C26.7103 42.9091 26.6986 46.3611 26.3041 48.6611C26.1556 49.373 25.787 50.0212 25.2496 50.515C23.9569 51.7834 22.9336 52.7103 21.0511 54.3161C20.8272 54.5306 20.6608 54.7973 20.5668 55.0918C20.2163 56.459 20.1014 57.8754 20.227 59.2807C20.2592 59.4392 20.2555 59.6028 20.2164 59.7598C20.1772 59.9167 20.1035 60.0631 20.0005 60.1883C19.61 60.6421 18.657 60.8709 17.497 60.452C17.1802 60.4293 16.8647 60.3904 16.5519 60.3357C16.4651 60.3218 16.385 60.2809 16.3233 60.2188C16.2615 60.1568 16.2212 60.0768 16.2082 59.9905C15.7906 58.07 15.585 56.1101 15.595 54.1454C15.5742 53.9252 15.6308 53.7045 15.7551 53.521C15.9321 53.3013 16.1296 53.0987 16.3449 52.9159C16.4425 51.7523 17.126 51.221 18.3719 50.8176C18.8557 49.8227 19.3928 48.8542 19.981 47.9164C19.258 45.7621 18.6941 43.5584 18.2938 41.3227C16.6195 43.6987 14.6747 45.8748 12.4979 47.8078C12.3192 47.9887 12.0772 48.0942 11.8222 48.1025C11.596 48.0903 11.372 48.0526 11.1544 47.9901C10.631 48.4012 10.3732 49.4096 10.0452 50.0535C8.90864 52.2178 7.35422 54.0446 4.4055 56.8798C4.47162 57.2927 4.49908 57.7108 4.48752 58.1288C4.47753 58.246 4.44323 58.36 4.38678 58.4634C4.33032 58.5669 4.25292 58.6576 4.15945 58.7299C3.84731 58.9704 3.50938 59.1759 3.15181 59.3428C3.0512 59.401 2.96429 59.4799 2.89693 59.5742C2.82957 59.6686 2.7833 59.7761 2.76125 59.8897C2.57107 60.7162 2.2881 61.5189 1.91764 62.2828C1.85958 62.425 1.76601 62.5501 1.64575 62.6465C1.52548 62.7429 1.3825 62.8072 1.23026 62.8335C0.931685 62.8778 0.629012 62.8882 0.328069 62.8645C1.6091 68.8842 6.53795 72.8326 13.2478 72.8326H20.6371L17.4658 82.5369L43.7738 91L47.7224 78.8987L28.8389 72.8209Z" fill="#00205C"/>
</svg>
