<svg width="184" height="91" viewBox="0 0 184 91" fill="none" xmlns="http://www.w3.org/2000/svg">
<g clip-path="url(#clip0)">
<path d="M69.8309 27.3052V34.5504H67.6477V27.3052H63.4609V45.5153H67.6477V38.27H69.8309V45.5153H74.0177V27.3052H69.8309Z" fill="#00205C"/>
<path d="M110.121 31.0248V27.3091H100.893V45.5192H110.121V41.7996H105.079V38.27H108.844V34.5543H105.079V31.0248H110.121Z" fill="#00205C"/>
<path d="M83.2116 27.3053H79.2826C78.8419 27.2836 78.4015 27.3539 77.9898 27.5115C77.5781 27.6691 77.2042 27.9107 76.8922 28.2205C76.5802 28.5303 76.337 28.9017 76.1783 29.3105C76.0196 29.7194 75.9488 30.1567 75.9707 30.5944V42.2302C75.9488 42.6679 76.0196 43.1052 76.1783 43.514C76.337 43.9229 76.5802 44.2942 76.8922 44.6041C77.2042 44.9139 77.5781 45.1554 77.9898 45.3131C78.4015 45.4707 78.8419 45.5409 79.2826 45.5193H83.2155C83.6562 45.5409 84.0966 45.4707 84.5083 45.3131C84.92 45.1554 85.2939 44.9139 85.6059 44.6041C85.9179 44.2942 86.1611 43.9229 86.3198 43.514C86.4785 43.1052 86.5493 42.6679 86.5275 42.2302V30.5944C86.5493 30.1564 86.4785 29.7187 86.3195 29.3095C86.1606 28.9004 85.917 28.5289 85.6046 28.219C85.2922 27.9091 84.9178 27.6677 84.5056 27.5103C84.0934 27.3529 83.6526 27.2831 83.2116 27.3053ZM80.1535 41.7958V31.0288H82.3368V41.7997L80.1535 41.7958Z" fill="#00205C"/>
<path d="M115.476 27.3091H111.289V45.5192H115.476V27.3091Z" fill="#00205C"/>
<path d="M99.7247 27.3052H95.5379L93.3859 34.5504H92.6594V27.3052H88.4688V45.5153H92.6594V38.27H93.3859L95.5379 45.5153H99.7247L97.0259 36.4122L99.7247 27.3052Z" fill="#00205C"/>
<path d="M70.6909 18.2295C71.1316 18.2511 71.572 18.1809 71.9837 18.0232C72.3954 17.8656 72.7693 17.6241 73.0813 17.3142C73.3933 17.0044 73.6365 16.6331 73.7952 16.2242C73.954 15.8154 74.0247 15.378 74.0029 14.9404V3.30455C74.027 2.86563 73.9579 2.42658 73.8002 2.01586C73.6425 1.60514 73.3996 1.23191 73.0874 0.92036C72.7751 0.608807 72.4005 0.365882 71.9876 0.207328C71.5748 0.048774 71.133 -0.0218715 70.6909 -3.02356e-05H66.7854C66.3447 -0.02169 65.9043 0.0485563 65.4926 0.206184C65.0809 0.363812 64.707 0.605327 64.395 0.915174C64.083 1.22502 63.8398 1.59633 63.6811 2.00518C63.5223 2.41404 63.4516 2.85138 63.4734 3.28903V14.9249C63.4494 15.3638 63.5184 15.8028 63.6761 16.2136C63.8338 16.6243 64.0767 16.9975 64.3889 17.3091C64.7012 17.6206 65.0759 17.8635 65.4887 18.0221C65.9015 18.1806 66.3433 18.2513 66.7854 18.2295H68.6327L67.8516 20.6575L74.4325 22.7752L75.4206 19.7499L70.6909 18.2295ZM67.6329 14.5099V3.71956H69.8161V14.4905L67.6329 14.5099Z" fill="#00205C"/>
<path d="M83.2116 0.000124497H79.2826C78.8419 -0.0215352 78.4015 0.048711 77.9898 0.206339C77.5781 0.363967 77.2042 0.605482 76.8922 0.915328C76.5802 1.22517 76.337 1.59648 76.1783 2.00534C76.0196 2.4142 75.9488 2.85153 75.9707 3.28919V18.2296H80.1575V12.4311L82.3407 13.137V18.2296H86.5275V3.28919C86.5493 2.85119 86.4785 2.41351 86.3195 2.00437C86.1606 1.59524 85.917 1.22373 85.6046 0.913826C85.2922 0.603919 84.9178 0.36249 84.5056 0.205113C84.0934 0.0477352 83.6526 -0.0220957 83.2116 0.000124497ZM80.1535 9.08771V3.71971H82.3368V9.78974L80.1535 9.08771Z" fill="#00205C"/>
<path d="M106.801 -7.03586e-05H102.865C102.424 -0.0217301 101.984 0.0485162 101.572 0.206144C101.16 0.363772 100.786 0.605287 100.474 0.915134C100.162 1.22498 99.9191 1.59629 99.7603 2.00515C99.6016 2.414 99.5309 2.85134 99.5527 3.28899V18.2294H103.743V12.4309L105.923 13.1368V18.2294H110.113V3.28899C110.135 2.85134 110.064 2.414 109.906 2.00515C109.747 1.59629 109.504 1.22498 109.192 0.915134C108.88 0.605287 108.506 0.363772 108.094 0.206144C107.683 0.0485162 107.242 -0.0217301 106.801 -7.03586e-05ZM103.743 9.08752V3.71952H105.923V9.78955L103.743 9.08752Z" fill="#00205C"/>
<path d="M144.737 0H134.902V3.71959H137.726V18.2101H141.913V3.71959H144.737V0Z" fill="#00205C"/>
<path d="M97.9983 0H88.3359V3.71959H93.4522L88.082 15.1305V18.2101H97.9983V14.4905H92.6281L97.9983 3.07962V0Z" fill="#00205C"/>
<path d="M165.846 -7.03586e-05H158.602V18.2294H162.788V3.71952H164.972V18.2294H169.158V3.28899C169.18 2.85134 169.109 2.414 168.951 2.00515C168.792 1.59629 168.549 1.22498 168.237 0.915134C167.925 0.605287 167.551 0.363772 167.139 0.206144C166.727 0.0485162 166.287 -0.0217301 165.846 -7.03586e-05Z" fill="#00205C"/>
<path d="M119.304 18.2294C119.748 18.2542 120.192 18.1855 120.608 18.028C121.023 17.8705 121.401 17.6276 121.715 17.3153C122.03 17.003 122.274 16.6283 122.433 16.2157C122.591 15.8031 122.661 15.3619 122.636 14.921V3.28515C122.657 2.8461 122.585 2.40746 122.425 1.99767C122.265 1.58787 122.02 1.21606 121.706 0.90634C121.392 0.596615 121.016 0.355882 120.602 0.199742C120.188 0.0436027 119.746 -0.0244599 119.304 -3.47742e-05H115.371C114.931 -0.0216945 114.49 0.0485517 114.079 0.20618C113.667 0.363808 113.293 0.605322 112.981 0.915169C112.669 1.22502 112.426 1.59632 112.267 2.00518C112.108 2.41404 112.038 2.85137 112.059 3.28903V14.9249C112.035 15.3638 112.104 15.8028 112.262 16.2135C112.42 16.6243 112.663 16.9975 112.975 17.309C113.287 17.6206 113.662 17.8635 114.075 18.0221C114.487 18.1806 114.929 18.2513 115.371 18.2294H117.219L116.438 20.6574L123.026 22.7558L124.01 19.7305L119.304 18.2294ZM116.246 14.5099V3.71955H118.429V14.4905L116.246 14.5099Z" fill="#00205C"/>
<path d="M134.09 14.921C134.115 15.3602 134.046 15.7997 133.889 16.2109C133.731 16.622 133.489 16.9958 133.176 17.3077C132.864 17.6197 132.489 17.863 132.076 18.0218C131.663 18.1806 131.221 18.2513 130.778 18.2294H124.529V14.4904H129.903V10.9066L126.732 9.88652C124.779 9.25431 124.174 8.44756 124.174 6.39577V3.29288C124.152 2.85491 124.222 2.41715 124.38 2.00782C124.539 1.5985 124.782 1.22671 125.094 0.916441C125.406 0.606169 125.78 0.364301 126.192 0.206442C126.604 0.048582 127.045 -0.0217647 127.486 -6.07083e-05H133.735V3.71953H128.361V6.41129L131.532 7.43136C133.485 8.06745 134.09 8.8742 134.09 10.9221V14.921Z" fill="#00205C"/>
<path d="M153.344 -7.03586e-05H149.411C148.97 -0.0216843 148.53 0.048563 148.118 0.206155C147.706 0.363747 147.332 0.605195 147.02 0.914975C146.707 1.22476 146.464 1.59601 146.305 2.00487C146.145 2.41373 146.074 2.85115 146.095 3.28899V18.2294H150.286V12.4309L152.465 13.1368V18.2294H156.656V3.28899C156.678 2.85134 156.607 2.414 156.448 2.00515C156.29 1.59629 156.047 1.22498 155.735 0.915134C155.423 0.605287 155.049 0.363772 154.637 0.206144C154.225 0.0485162 153.785 -0.0217301 153.344 -7.03586e-05ZM150.286 9.08752V3.71952H152.465V9.78955L150.286 9.08752Z" fill="#00205C"/>
<path d="M148.259 54.6108H144.072V72.8209H148.259V54.6108Z" fill="#00205C"/>
<path d="M72.6898 58.3304V54.6108H63.4609V72.8209H67.6477V65.5757H71.4127V61.8561H67.6477V58.3304H72.6898Z" fill="#00205C"/>
<path d="M91.4968 54.6108H84.252V72.8208H91.4968C91.9375 72.8425 92.3779 72.7723 92.7896 72.6146C93.2013 72.457 93.5752 72.2155 93.8872 71.9056C94.1992 71.5958 94.4424 71.2245 94.6011 70.8156C94.7598 70.4068 94.8306 69.9694 94.8088 69.5318V57.8959C94.83 57.4586 94.7589 57.0217 94.5999 56.6133C94.4409 56.2049 94.1976 55.8341 93.8857 55.5247C93.5737 55.2152 93.2 54.9741 92.7886 54.8167C92.3772 54.6593 91.9372 54.5891 91.4968 54.6108ZM88.4387 69.1013V58.3303H90.6103V69.1013H88.4387Z" fill="#00205C"/>
<path d="M115.094 72.8209H119.281L117.016 65.1606C117.53 64.8761 117.954 64.4551 118.241 63.9448C118.528 63.4345 118.667 62.855 118.641 62.271V57.8998C118.663 57.4622 118.592 57.0248 118.433 56.616C118.274 56.2071 118.031 55.8358 117.719 55.526C117.407 55.2161 117.033 54.9746 116.622 54.817C116.21 54.6594 115.769 54.5891 115.329 54.6108H107.49V72.8209H111.7V65.5756H112.966L115.094 72.8209ZM111.7 58.3304H114.473V61.856H111.7V58.3304Z" fill="#00205C"/>
<path d="M179.809 54.6108V62.6861H177.63V54.6108H173.439V63.1128C173.418 63.5396 173.485 63.9663 173.636 64.3665C173.787 64.7667 174.019 65.132 174.318 65.4398C174.616 65.7476 174.975 65.9914 175.372 66.1562C175.769 66.321 176.196 66.4032 176.626 66.3979V72.8209H180.829V66.3979C181.259 66.4032 181.686 66.321 182.083 66.1562C182.48 65.9914 182.839 65.7476 183.138 65.4398C183.436 65.132 183.668 64.7667 183.819 64.3665C183.97 63.9663 184.037 63.5396 184.016 63.1128V54.6108H179.809Z" fill="#00205C"/>
<path d="M83.0844 58.3304V54.6108H73.8555V72.8209H83.0844V69.1013H78.0462V65.5757H81.8072V61.8561H78.0462V58.3304H83.0844Z" fill="#00205C"/>
<path d="M105.596 58.3304V54.6108H96.3672V72.8209H105.596V69.1013H100.554V65.5757H104.319V61.8561H100.554V58.3304H105.596Z" fill="#00205C"/>
<path d="M127.713 54.6108H123.765C123.324 54.5891 122.883 54.6594 122.472 54.817C122.06 54.9746 121.686 55.216 121.373 55.5258C121.061 55.8356 120.817 56.2068 120.658 56.6157C120.499 57.0246 120.428 57.462 120.449 57.8998V72.8208H124.64V67.0417L126.819 67.7476V72.8208H131.01V57.8998C131.031 57.4635 130.961 57.0276 130.803 56.6198C130.645 56.2121 130.404 55.8415 130.093 55.5319C129.783 55.2223 129.411 54.9805 129.001 54.8219C128.591 54.6632 128.153 54.5913 127.713 54.6108ZM124.655 63.6983V58.3303H126.835V64.3849L124.655 63.6983Z" fill="#00205C"/>
<path d="M142.484 69.5318C142.506 69.9697 142.434 70.4071 142.275 70.8159C142.116 71.2248 141.872 71.596 141.56 71.9058C141.248 72.2156 140.874 72.4571 140.462 72.6146C140.05 72.7722 139.609 72.8425 139.169 72.8209H132.92V69.1013H138.294V65.5174L135.134 64.4974C133.181 63.8652 132.572 63.0584 132.572 61.0066V57.9037C132.551 57.4659 132.622 57.0285 132.781 56.6196C132.94 56.2107 133.184 55.8395 133.496 55.5297C133.809 55.2199 134.183 54.9785 134.595 54.8209C135.006 54.6633 135.447 54.593 135.888 54.6147H142.137V58.3342H136.755V61.026L139.922 62.0461C141.875 62.6822 142.484 63.4889 142.484 65.5368V69.5318Z" fill="#00205C"/>
<path d="M172.236 69.5318C172.258 69.9697 172.186 70.4071 172.027 70.8159C171.868 71.2248 171.624 71.596 171.312 71.9058C171 72.2156 170.626 72.4571 170.214 72.6146C169.802 72.7722 169.361 72.8425 168.921 72.8209H162.672V69.1013H168.046V65.5174L164.878 64.4974C162.925 63.8652 162.32 63.0584 162.316 61.0066V57.9037C162.295 57.4659 162.366 57.0285 162.525 56.6196C162.685 56.2107 162.928 55.8395 163.24 55.5297C163.553 55.2199 163.927 54.9785 164.339 54.8209C164.751 54.6633 165.191 54.593 165.632 54.6147H171.881V58.3342H166.511V61.026L169.678 62.0461C171.631 62.6822 172.24 63.4889 172.24 65.5368L172.236 69.5318Z" fill="#00205C"/>
<path d="M157.454 54.6108H153.521C153.08 54.5892 152.639 54.6594 152.227 54.817C151.815 54.9746 151.441 55.216 151.129 55.5258C150.817 55.8356 150.573 56.2068 150.414 56.6157C150.255 57.0246 150.184 57.462 150.205 57.8998V72.8209H154.396V67.0417L156.579 67.7476V72.8209H160.766V57.8998C160.787 57.4622 160.717 57.0248 160.558 56.616C160.399 56.2071 160.156 55.8358 159.844 55.526C159.532 55.2161 159.158 54.9746 158.746 54.817C158.335 54.6594 157.894 54.5891 157.454 54.6108ZM154.396 63.6984V58.3304H156.579V64.3849L154.396 63.6984Z" fill="#00205C"/>
<path d="M28.8389 72.8209H28.9795C36.7906 72.8209 42.2233 67.4413 42.2233 59.6647V13.1563C42.2233 5.37963 36.8102 0 28.9795 0H13.2478C5.41705 0 0 5.37963 0 13.1563V56.2088C0.390559 55.7706 0.781117 55.3168 1.19902 54.8475C2.67923 50.3871 3.93293 47.6798 5.86229 45.9965C6.17874 45.7296 6.44346 45.4075 6.6434 45.0462C6.58873 44.9648 6.4989 44.8561 6.42079 44.7359C6.31909 44.5678 6.26182 44.3769 6.25431 44.1809C6.2468 43.985 6.28929 43.7903 6.37782 43.615C7.49868 40.589 8.95671 37.697 10.7247 34.9928C10.674 34.4886 10.6193 34.1085 10.6115 33.6625C10.6072 33.3651 10.702 33.0747 10.881 32.8363C11.3396 32.2073 11.8406 31.6099 12.3807 31.0483C11.6267 29.4511 10.9605 27.8145 10.385 26.1457C10.118 25.3342 10.0925 24.4635 10.3114 23.6379C10.5303 22.8124 10.9844 22.0671 11.6191 21.4914C13.1814 20.1261 14.4038 19.3039 16.7862 17.9735C16.4187 16.6305 16.1666 15.2591 16.0324 13.8738C16.0044 13.6431 16.0257 13.4092 16.0949 13.1873C16.4354 12.2282 16.8669 11.3036 17.3838 10.4257C17.4346 10.3236 17.513 10.2376 17.6103 10.1773C17.7075 10.117 17.8198 10.0849 17.9345 10.0844C19.0128 10.0384 20.0868 9.91921 21.1488 9.72756C21.2617 9.70133 21.3794 9.7028 21.4917 9.73186C21.604 9.76092 21.7075 9.81668 21.7932 9.89434C22.5946 10.6096 23.2394 11.481 23.6874 12.4542C23.7806 12.6469 23.8501 12.8501 23.8944 13.0593C24.0272 13.6837 24.1365 14.2539 24.2849 14.9986C25.4837 14.7938 26.6942 14.6642 27.9093 14.6107C29.0029 14.5797 29.7957 15.1343 30.2136 16.2553C30.7751 17.9166 31.1842 19.625 31.4361 21.3595C32.4982 21.9896 33.375 22.8857 33.9786 23.9582C34.0546 24.084 34.0859 24.2315 34.0675 24.377C34.0491 24.5226 33.982 24.6578 33.8771 24.7611C33.552 25.0951 33.1934 25.3953 32.8069 25.657C32.6354 25.7821 32.5094 25.959 32.4476 26.1612C32.1432 26.9495 31.6854 27.6705 31.1002 28.2828V35.8772C31.5378 36.2386 31.8846 36.6963 32.1131 37.2141C32.3415 37.7318 32.4454 38.2953 32.4164 38.8598C32.3811 39.3286 32.2467 39.7847 32.0219 40.1984C31.7972 40.6121 31.4871 40.974 31.1119 41.2607C31.1119 41.2607 31.1119 60.4598 31.1119 61.22C31.1119 61.8639 31.3541 62.1742 31.7602 62.1742C32.4281 62.1742 33.3225 61.6622 34.1895 60.7468C34.8808 60.0254 35.0839 59.5134 35.5643 59.5134C36.0447 59.5134 36.1032 61.1812 35.7791 62.0539C35.5459 62.6316 35.1762 63.1451 34.7011 63.5511C33.7911 64.416 32.2602 65.2654 31.065 65.2654C30.0965 65.2654 29.3622 64.7883 29.3622 62.4224V41.2141C28.401 40.8083 27.4934 40.2873 26.6595 39.6627C26.7103 42.9091 26.6986 46.3611 26.3041 48.6611C26.1556 49.373 25.787 50.0212 25.2496 50.515C23.9569 51.7834 22.9336 52.7103 21.0511 54.3161C20.8272 54.5306 20.6608 54.7973 20.5668 55.0918C20.2163 56.459 20.1014 57.8754 20.227 59.2807C20.2592 59.4392 20.2555 59.6028 20.2164 59.7598C20.1772 59.9167 20.1035 60.0631 20.0005 60.1883C19.61 60.6421 18.657 60.8709 17.497 60.452C17.1802 60.4293 16.8647 60.3904 16.5519 60.3357C16.4651 60.3218 16.385 60.2809 16.3233 60.2188C16.2615 60.1568 16.2212 60.0768 16.2082 59.9905C15.7906 58.07 15.585 56.1101 15.595 54.1454C15.5742 53.9252 15.6308 53.7045 15.7551 53.521C15.9321 53.3013 16.1296 53.0987 16.3449 52.9159C16.4425 51.7523 17.126 51.221 18.3719 50.8176C18.8557 49.8227 19.3928 48.8542 19.981 47.9164C19.258 45.7621 18.6941 43.5584 18.2938 41.3227C16.6195 43.6987 14.6747 45.8748 12.4979 47.8078C12.3192 47.9887 12.0772 48.0942 11.8222 48.1025C11.596 48.0903 11.372 48.0526 11.1544 47.9901C10.631 48.4012 10.3732 49.4096 10.0452 50.0535C8.90864 52.2178 7.35422 54.0446 4.4055 56.8798C4.47162 57.2927 4.49908 57.7108 4.48752 58.1288C4.47753 58.246 4.44323 58.36 4.38678 58.4634C4.33032 58.5669 4.25292 58.6576 4.15945 58.7299C3.84731 58.9704 3.50938 59.1759 3.15181 59.3428C3.0512 59.401 2.96429 59.4799 2.89693 59.5742C2.82957 59.6686 2.7833 59.7761 2.76125 59.8897C2.57107 60.7162 2.2881 61.5189 1.91764 62.2828C1.85958 62.425 1.76601 62.5501 1.64575 62.6465C1.52548 62.7429 1.3825 62.8072 1.23026 62.8335C0.931685 62.8778 0.629012 62.8882 0.328069 62.8645C1.6091 68.8842 6.53795 72.8326 13.2478 72.8326H20.6371L17.4658 82.5369L43.7738 91L47.7224 78.8987L28.8389 72.8209Z" fill="#00205C"/>
<path d="M28.07 33.2862C28.2772 33.7393 28.4533 34.2058 28.5972 34.6825C28.6547 34.8345 28.7547 34.9671 28.8855 35.0647C29.0163 35.1622 29.1723 35.2207 29.3354 35.2332V29.2291C29.1955 29.28 29.0499 29.3138 28.9019 29.33C28.7841 29.3405 28.6655 29.3215 28.557 29.2748C28.4485 29.228 28.3536 29.155 28.2809 29.0624C28.0001 28.7455 27.7624 28.3935 27.574 28.0151C27.1834 29.9001 26.7187 31.599 26.1797 33.4956C26.6488 33.3068 27.1354 33.1639 27.6326 33.069C27.7196 33.0417 27.8139 33.0491 27.8956 33.0896C27.9772 33.1302 28.0397 33.2007 28.07 33.2862Z" fill="#00205C"/>
</g>
<defs>
<clipPath id="clip0">
<rect width="184" height="91" fill="white"/>
</clipPath>
</defs>
</svg>
