<svg width="194" height="94" viewBox="0 0 194 94" fill="none" xmlns="http://www.w3.org/2000/svg">
<g clip-path="url(#clip0)">
<path fill-rule="evenodd" clip-rule="evenodd" d="M68.5 53.49C68.5 53.71 68.4633 53.9267 68.39 54.14L78.59 56.82C78.75 56.0133 78.88 55.1933 78.98 54.36L68.5 53.49ZM7.28 45.52L17.75 46.37C17.75 46.15 17.7833 45.9333 17.85 45.72L7.67 43.06C7.51667 43.8667 7.38667 44.6867 7.28 45.52ZM68 56.12C67.9467 56.3333 67.8867 56.5433 67.82 56.75L77.68 60.48C77.92 59.6933 78.1367 58.8933 78.33 58.08L68 56.12ZM67.21 58.69L67 59.3L76.39 64C76.71 63.24 77.0067 62.4667 77.28 61.68L67.21 58.68V58.69ZM66.16 61.16L65.86 61.74L74.73 67.44C75.13 66.72 75.5067 65.98 75.86 65.22L66.16 61.16ZM64.87 63.5L64.5 64L72.73 70.59C73.2033 69.9233 73.6567 69.2267 74.09 68.5L64.87 63.5ZM63.33 65.7L62.91 66.21L70.4 73.63C70.94 73.01 71.4633 72.3667 71.97 71.7L63.33 65.7ZM14.29 28.19L22.93 34.19L23.34 33.68L15.85 26.28C15.31 26.9 14.7867 27.5467 14.28 28.22L14.29 28.19ZM61.57 67.72L61.1 68.18L67.78 76.34C68.38 75.78 68.9667 75.1933 69.54 74.58L61.54 67.72H61.57ZM16.73 25.29L24.73 32.14L25.2 31.67L18.52 23.53C17.92 24.09 17.3333 24.6767 16.76 25.29H16.73ZM59.61 69.55L59.1 70L64.89 78.81C65.5567 78.3167 66.2033 77.7933 66.83 77.24L59.62 69.58L59.61 69.55ZM19.45 22.67L26.66 30.31L27.17 29.9L21.38 21.1C20.7133 21.6 20.07 22.1233 19.45 22.67ZM57.47 71.17L56.92 71.52L61.75 80.89C62.4567 80.4633 63.1533 80.0133 63.84 79.54L57.47 71.17ZM22.43 20.34L28.8 28.7L29.35 28.34L24.51 19C23.8033 19.4267 23.1067 19.88 22.42 20.36L22.43 20.34ZM55.17 72.55L54.58 72.84L58.41 82.66C59.1567 82.3133 59.8967 81.9367 60.63 81.53L55.17 72.53V72.55ZM25.63 18.34L31.1 27.34L31.69 27.04L27.86 17.23C27.1133 17.5767 26.3733 17.9533 25.64 18.36L25.63 18.34ZM52.74 73.69L52.12 73.92L54.9 84.09C55.68 83.8233 56.4567 83.5267 57.23 83.2L52.74 73.69ZM29 16.68L33.5 26.18L34.11 25.94L31.36 15.79C30.58 16.0567 29.8067 16.3533 29.04 16.68H29ZM50.21 74.56L49.57 74.72L51.27 85.12C52.0767 84.9333 52.88 84.72 53.68 84.48L50.21 74.55V74.56ZM32.59 15.39L36.07 25.31L36.71 25.14L35 14.74C34.2 14.9267 33.4 15.1433 32.6 15.39H32.59ZM47.6 75.17L46.95 75.27L47.55 85.8C48.37 85.7 49.19 85.57 50.01 85.41L47.6 75.17ZM39.58 75.31L38.93 75.2L36.26 85.4C37.0667 85.56 37.8867 85.69 38.72 85.79L39.59 75.31H39.58ZM36.95 74.8L36.32 74.62L32.59 84.48C33.3767 84.72 34.1767 84.9367 34.99 85.13L36.99 74.8H36.95ZM51.27 14.75L49.33 25.07L49.97 25.24L53.68 15.38C52.8933 15.14 52.09 14.9267 51.27 14.74V14.75ZM34.38 74L33.77 73.76L29 83.19C29.76 83.51 30.5333 83.8067 31.32 84.08L34.32 74.01L34.38 74ZM54.91 15.79L51.91 25.86L52.52 26.1L57.24 16.69C56.48 16.37 55.7033 16.0733 54.91 15.8V15.79ZM31.92 73L31.34 72.7L25.64 81.57C26.36 81.97 27.1 82.3467 27.86 82.7L31.92 73ZM58.41 17.21L54.41 26.91L55 27.21L60.68 18.34C59.96 17.94 59.22 17.5633 58.46 17.21H58.41ZM29.57 71.67L29 71.31L22.41 79.54C23.0767 80.0133 23.7733 80.4667 24.5 80.9L29.55 71.68L29.57 71.67ZM61.75 19L56.75 28.22L57.3 28.58L63.88 20.35C63.2133 19.8767 62.5167 19.4267 61.79 19H61.75ZM27.37 70.14L26.86 69.72L19.44 77.21C20.06 77.75 20.7033 78.2733 21.37 78.78L27.37 70.14ZM64.88 21.1L58.88 29.74L59.39 30.15L66.79 22.66C66.17 22.12 65.5233 21.5967 64.85 21.09L64.88 21.1ZM25.35 68.38L24.89 67.91L16.73 74.59C17.29 75.19 17.8767 75.7767 18.49 76.35L25.35 68.35V68.38ZM67.78 23.53L60.93 31.53L61.4 32L69.54 25.32C68.98 24.72 68.3933 24.1333 67.78 23.56V23.53ZM23.52 66.42L23.11 65.91L14.3 71.69C14.7933 72.3567 15.3167 73.0033 15.87 73.63L23.53 66.42H23.52ZM70.4 26.25L62.76 33.46L63.17 33.97L72 28.19C71.5 27.5233 70.9767 26.88 70.43 26.26L70.4 26.25ZM21.9 64.28L21.55 63.73L12.18 68.56C12.6067 69.2667 13.0567 69.9633 13.53 70.65L21.9 64.28ZM20.52 62L20.23 61.41L10.4 65.22C10.7467 65.9667 11.1233 66.7067 11.53 67.44L20.53 61.98L20.52 62ZM19.38 59.55L19.15 58.93L9 61.71C9.26667 62.49 9.56333 63.2667 9.89 64.04L19.4 59.55H19.38ZM18.51 57C18.45 56.7867 18.3967 56.5733 18.35 56.36L7.95 58.06C8.13667 58.8667 8.35 59.67 8.59 60.47L18.51 57ZM17.91 54.4L17.81 53.75L7.28 54.35C7.38 55.17 7.51 55.99 7.67 56.81L17.91 54.4ZM78.59 43.06L68.37 45.49C68.41 45.71 68.4433 45.9267 68.47 46.14L79 45.52C78.9 44.7 78.77 43.88 78.61 43.06H78.59ZM17.58 51.74V51.08L7 50.58C7 51.4067 7.04333 52.2367 7.13 53.07L17.56 51.74H17.58ZM79.12 46.81L68.69 48.15V48.81L79.21 49.3C79.21 48.4733 79.1667 47.6433 79.08 46.81H79.12ZM17.53 49.06V48.4L7.15 46.81C7.05 47.6033 7 48.43 7 49.29L17.51 49.06H17.53ZM79.25 50.58L68.74 50.83V51.49L79.15 53.07C79.2233 52.25 79.2667 51.42 79.28 50.58H79.25Z" fill="#958166"/>
<path d="M43.1305 81L41.2305 79.6C39.8194 78.4855 38.7745 76.9739 38.2305 75.26C37.4991 75.523 36.7279 75.6584 35.9505 75.66C34.1934 75.6374 32.502 74.9885 31.1805 73.83L27.0505 70L32.4205 68.37C34.0181 67.8285 35.4433 66.8726 36.5505 65.6C36.7938 65.2804 37.0175 64.9465 37.2205 64.6L37.0905 64.4C35.444 62.0514 32.9734 60.409 30.1705 59.8C27.9518 59.3661 25.9776 58.113 24.6405 56.29C22.9338 56.2085 21.2958 55.5933 19.9573 54.5312C18.6189 53.4691 17.6476 52.0136 17.1805 50.37C16.661 48.7304 16.7353 46.9602 17.3905 45.37C17.1142 45.032 16.873 44.6668 16.6705 44.28C9.92055 44.58 5.56055 40.28 5.56055 33.51V28.85L9.93055 30.56C11.3905 31.13 19.2005 34.03 26.2805 33.89H26.7205C31.019 33.9129 35.1773 35.4214 38.4905 38.16C39.1355 36.8371 40.0724 35.678 41.2305 34.77L43.1305 33.37L45.0305 34.77C46.1715 35.6675 47.0974 36.8086 47.7405 38.11C51.0969 35.4265 55.2536 33.9412 59.5505 33.89H60.5505C67.3905 33.89 74.3006 31.34 76.2606 30.56L80.6405 28.81V33.53C80.6405 40.42 76.3705 44.6 69.5305 44.3C69.3281 44.6868 69.0868 45.052 68.8105 45.39C69.4658 46.9802 69.5401 48.7504 69.0205 50.39C68.5517 52.0317 67.5797 53.485 66.2414 54.5452C64.9031 55.6054 63.266 56.2192 61.5605 56.3C60.2235 58.123 58.2493 59.3761 56.0305 59.81C53.2244 60.4177 50.7502 62.06 49.1005 64.41L48.9705 64.61C49.1741 64.9562 49.3978 65.2901 49.6405 65.61C50.7487 66.8884 52.1778 67.8481 53.7805 68.39L59.2305 70L55.0605 73.79C54.1277 74.5899 53.0093 75.1435 51.8076 75.4003C50.6058 75.657 49.3589 75.6088 48.1805 75.26H48.0205C47.4748 76.9702 46.43 78.4782 45.0205 79.59L43.1305 81ZM39.2605 73.23L39.4505 74.13C39.8171 75.8238 40.7522 77.3412 42.1005 78.43L43.1005 79.19L44.1005 78.43C45.4406 77.3484 46.3719 75.8422 46.7405 74.16L46.9205 73.3L47.7305 73.65C47.9848 73.7587 48.2452 73.8522 48.5105 73.93C49.0563 74.0892 49.622 74.17 50.1905 74.17C51.5871 74.1739 52.9388 73.6772 54.0005 72.77L56.2805 70.7L53.3405 69.81C51.4409 69.1806 49.7521 68.0386 48.4605 66.51C48.0861 66.0035 47.7518 65.4685 47.4605 64.91L47.2605 64.53L48.0005 63.6C49.8432 60.948 52.6175 59.0878 55.7705 58.39C58.1805 57.76 59.7705 56.68 60.6305 55.2L60.8505 54.79H61.3105C62.7498 54.7923 64.1507 54.3261 65.3016 53.462C66.4526 52.5979 67.2911 51.3827 67.6905 50C68.1472 48.5585 68.0289 46.9963 67.3605 45.64L67.1305 45.18L67.4805 44.81C67.9022 44.3787 68.2412 43.8737 68.4805 43.32L68.6805 42.83H69.2105C75.4305 43.32 79.2105 39.75 79.2105 33.54V31L76.8205 32C74.7405 32.83 67.2305 35.6 59.9205 35.43H59.5305C55.2475 35.4932 51.1274 37.0816 47.9105 39.91L47.1305 40.58L46.7605 39.58C46.2232 38.171 45.3186 36.9314 44.1405 35.99L43.1405 35.23L42.1405 36C40.945 36.9581 40.0325 38.2232 39.5005 39.66L39.1305 40.66L38.3405 39.96C35.0665 36.9707 30.7734 35.3465 26.3405 35.42H25.7005C18.5405 35.42 10.8705 32.56 9.41055 31.98L7.00055 31V33.56C7.00055 39.23 10.5205 42.89 16.0005 42.89H17.6105L17.8105 43.38C18.0513 43.9329 18.3901 44.4377 18.8105 44.87L19.1605 45.24L18.9305 45.7C18.2713 47.0367 18.1462 48.5743 18.5805 50C18.9547 51.3499 19.7443 52.5477 20.8374 53.4236C21.9305 54.2995 23.2716 54.8091 24.6705 54.88H25.4605L25.6805 55.29C26.4905 56.78 28.1305 57.85 30.5405 58.48C33.694 59.1769 36.4686 61.0373 38.3105 63.69L38.9205 64.61L38.7205 64.99C38.4297 65.5488 38.0954 66.0837 37.7205 66.59C36.4277 68.1103 34.7436 69.2481 32.8505 69.88L29.9105 70.78L32.1705 72.85C33.2465 73.7393 34.6049 74.2146 36.0005 74.19C36.6212 74.1901 37.2371 74.0818 37.8205 73.87C38.0405 73.79 38.2605 73.7 38.4705 73.6L39.2605 73.23Z" fill="#958166"/>
<path fill-rule="evenodd" clip-rule="evenodd" d="M59.9091 37.09C52.7391 36.92 46.7591 41.94 45.2891 46.47C45.6927 44.807 45.7641 43.0806 45.4991 41.39C45.2062 39.821 44.3708 38.405 43.1391 37.39C41.9073 38.405 41.0719 39.821 40.7791 41.39C40.5173 43.0813 40.5921 44.8076 40.9991 46.47C39.2891 41.82 33.5591 36.92 26.3791 37.09C18.7991 37.27 10.1091 34.98 8.78906 33.54C8.78906 39.45 12.8591 42.61 20.3291 40.45C18.1191 41.09 19.6091 44.39 22.1691 44.54C16.9091 48 22.6191 55.6 26.9991 52.25C26.9991 52.25 25.7391 55.33 30.9991 56.7C34.5654 57.5066 37.6989 59.623 39.7791 62.63C40.7291 57.07 38.3591 52.76 32.6591 53.63C33.6765 53.1981 34.5053 52.4158 34.9952 51.425C35.4851 50.4342 35.6035 49.3006 35.3291 48.23C34.4391 44.23 30.0891 43.03 28.0291 45.14C29.3991 44.84 33.1891 47.22 30.7591 49.47C28.3291 51.72 23.4591 47.16 25.3591 43.89C27.2591 40.62 31.3591 41.33 34.0791 43.18C40.8391 47.7 43.4891 58 40.5491 65.18C40.1576 66.0173 39.6854 66.8144 39.1391 67.56C37.6221 69.3849 35.6227 70.7467 33.3691 71.49C33.8969 71.9198 34.5215 72.2145 35.1888 72.3487C35.8562 72.4828 36.5461 72.4524 37.1991 72.26C38.8084 71.6326 40.2279 70.599 41.3191 69.26C40.9739 70.6739 40.9127 72.1423 41.1391 73.58C41.3812 74.9203 42.0896 76.1318 43.1391 77C44.1878 76.1312 44.8961 74.92 45.1391 73.58C45.3772 72.1481 45.3296 70.6833 44.9991 69.27C46.1049 70.5935 47.52 71.6239 49.1191 72.27C49.7617 72.5369 50.4693 72.6062 51.1515 72.4691C51.8337 72.3319 52.4595 71.9945 52.9491 71.5C50.6954 70.7567 48.696 69.3949 47.1791 67.57C46.6327 66.8244 46.1605 66.0273 45.7691 65.19C42.8291 58.03 45.4791 47.73 52.2391 43.19C54.9991 41.35 59.0591 40.64 60.9591 43.9C62.8591 47.16 57.9591 51.73 55.5591 49.48C53.1591 47.23 56.9191 44.85 58.2891 45.15C56.2291 43.03 51.8791 44.26 50.9891 48.24C50.7146 49.3106 50.833 50.4442 51.3229 51.435C51.8128 52.4258 52.6417 53.2081 53.6591 53.64C47.9591 52.79 45.5891 57.1 46.5391 62.64C48.6193 59.633 51.7527 57.5166 55.3191 56.71C60.5491 55.34 59.3191 52.26 59.3191 52.26C63.7091 55.61 69.4191 47.98 64.1891 44.55C66.7491 44.4 68.1891 41.09 66.0291 40.46C73.4891 42.62 77.5691 39.46 77.5691 33.55C76.1791 35 67.4891 37.26 59.9091 37.09Z" fill="#112C4F"/>
<path d="M112.771 64.05C112.771 63.7623 112.751 63.4749 112.711 63.19H111.801L110.651 63.25L109.401 63.35L108.221 63.48C108.221 63.3 108.281 63.12 108.311 62.94C108.36 62.5817 108.36 62.2184 108.311 61.86C108.311 61.68 108.261 61.5 108.221 61.32H120.881C120.847 61.5 120.817 61.68 120.791 61.86C120.742 62.2184 120.742 62.5817 120.791 62.94C120.791 63.12 120.821 63.3 120.881 63.48L119.781 63.35L118.561 63.25L117.421 63.19H116.511C116.503 63.3032 116.503 63.4168 116.511 63.53V75.11C116.511 76.19 116.561 77.2234 116.661 78.21C116.358 78.1923 116.054 78.1923 115.751 78.21H113.541C113.238 78.1924 112.934 78.1924 112.631 78.21C112.697 77.1967 112.747 76.1634 112.781 75.11C112.814 74.0567 112.814 72.85 112.781 71.49V65.35C112.781 64.8767 112.777 64.4434 112.771 64.05ZM127.161 70.48V75.1C127.161 76.18 127.211 77.2134 127.311 78.2C127.008 78.1824 126.704 78.1824 126.401 78.2H124.191C123.888 78.1823 123.584 78.1823 123.281 78.2C123.347 77.1867 123.397 76.1534 123.431 75.1C123.464 74.0467 123.464 72.84 123.431 71.48V64.53C123.431 63.45 123.381 62.39 123.281 61.35L124.191 61.44H125.291C125.697 61.44 126.201 61.42 126.801 61.38C127.367 61.34 128.067 61.32 128.901 61.32H130.501C130.883 61.346 131.264 61.3961 131.641 61.47C131.926 61.5263 132.204 61.6135 132.471 61.73C132.705 61.8362 132.929 61.9634 133.141 62.11C133.654 62.476 134.067 62.9636 134.345 63.5292C134.622 64.0948 134.755 64.7205 134.731 65.35C134.771 66.4137 134.415 67.4545 133.731 68.27C132.978 69.0817 131.993 69.6406 130.911 69.87C131.697 71.2634 132.541 72.65 133.441 74.03C134.341 75.41 135.241 76.78 136.141 78.14H131.701L127.311 70.41L127.161 70.48ZM130.821 64.25C130.709 63.8541 130.474 63.5039 130.151 63.25C129.799 63.0109 129.394 62.8632 128.971 62.82C128.397 62.7486 127.819 62.7152 127.241 62.72C127.194 64.9467 127.171 67.1734 127.171 69.4H127.711C128.161 69.4309 128.614 69.3696 129.04 69.22C129.467 69.0705 129.858 68.8357 130.191 68.53C130.772 67.8198 131.061 66.9155 131.001 66C131.037 65.4108 130.976 64.8196 130.821 64.25ZM143.081 78.2C142.222 78.0039 141.415 77.6291 140.711 77.1C140.031 76.5704 139.489 75.8842 139.131 75.1C138.714 74.1565 138.516 73.1309 138.551 72.1V63.13C138.551 62.3167 138.527 61.7034 138.481 61.29L139.481 61.38H141.481L142.481 61.29C142.314 62.8767 142.217 64.3534 142.191 65.72C142.164 67.0867 142.164 68.4734 142.191 69.88C142.164 71.0915 142.272 72.3021 142.511 73.49C142.659 74.2607 142.984 74.9864 143.461 75.61C143.854 76.0944 144.389 76.444 144.991 76.61C145.681 76.7818 146.39 76.8625 147.101 76.85C147.936 76.8986 148.759 76.6349 149.411 76.11C149.999 75.5654 150.433 74.8757 150.671 74.11C150.975 73.202 151.153 72.2565 151.201 71.3C151.267 70.2467 151.301 69.1467 151.301 68C151.301 66.8534 151.301 65.73 151.301 64.63C151.301 63.51 151.251 62.3867 151.151 61.26L151.811 61.35C152.007 61.3614 152.204 61.3614 152.401 61.35C152.604 61.3627 152.808 61.3627 153.011 61.35L153.621 61.26C153.621 61.62 153.587 62.1034 153.521 62.71C153.454 63.3167 153.421 64.0167 153.421 64.81C153.387 65.6034 153.357 66.48 153.331 67.44C153.304 68.4 153.304 69.4 153.331 70.44C153.331 73.2867 152.717 75.3267 151.491 76.56C150.761 77.2158 149.907 77.7176 148.979 78.0355C148.051 78.3534 147.069 78.4808 146.091 78.41C145.083 78.4629 144.072 78.3924 143.081 78.2ZM161.891 62.55C161.215 62.5212 160.554 62.7581 160.051 63.21C159.635 63.5888 159.386 64.1159 159.356 64.6772C159.326 65.2386 159.518 65.7892 159.891 66.21C160.303 66.6096 160.771 66.9466 161.281 67.21C161.834 67.5234 162.431 67.8234 163.071 68.11C163.705 68.3957 164.305 68.7512 164.861 69.17C165.416 69.5841 165.888 70.0999 166.251 70.69C166.645 71.3904 166.835 72.1871 166.801 72.99C166.81 73.7653 166.649 74.5331 166.331 75.24C166.024 75.9184 165.57 76.5197 165.001 77C164.411 77.4913 163.732 77.8647 163.001 78.1C162.139 78.3632 161.242 78.4914 160.341 78.48C159.542 78.4914 158.745 78.3972 157.971 78.2C157.404 78.0695 156.868 77.8319 156.391 77.5C156.557 76.9267 156.697 76.4034 156.811 75.93C156.924 75.4567 157.021 74.94 157.101 74.38H157.571C157.702 75.1053 158.076 75.7645 158.631 76.25C158.923 76.5064 159.263 76.7034 159.631 76.83C160.059 76.9747 160.509 77.0457 160.961 77.04C161.354 77.0724 161.749 77.0234 162.123 76.8961C162.496 76.7688 162.839 76.5659 163.131 76.3C163.359 76.066 163.538 75.789 163.658 75.4852C163.778 75.1813 163.837 74.8567 163.831 74.53C163.854 73.9726 163.66 73.428 163.291 73.01C162.896 72.6079 162.44 72.2705 161.941 72.01C161.401 71.71 160.811 71.4167 160.171 71.13C159.545 70.8642 158.951 70.5288 158.401 70.13C157.836 69.7113 157.36 69.1844 157.001 68.58C156.616 67.8801 156.429 67.0883 156.461 66.29C156.444 65.5129 156.597 64.7414 156.911 64.03C157.196 63.4026 157.612 62.8434 158.131 62.39C158.644 61.9468 159.238 61.6072 159.881 61.39C160.56 61.1405 161.277 61.0087 162.001 61C162.786 60.9865 163.568 61.0945 164.321 61.32C164.939 61.5077 165.519 61.8058 166.031 62.2C165.884 62.58 165.757 62.9434 165.651 63.29L165.241 64.63H164.871C164.679 63.9995 164.281 63.4517 163.741 63.0745C163.2 62.6973 162.549 62.5126 161.891 62.55ZM172.771 64.05C172.771 63.7623 172.751 63.4749 172.711 63.19H171.801L170.651 63.25L169.401 63.35L168.221 63.48C168.221 63.3 168.281 63.12 168.311 62.94C168.36 62.5817 168.36 62.2184 168.311 61.86C168.311 61.68 168.261 61.5 168.221 61.32H180.881C180.847 61.5 180.817 61.68 180.791 61.86C180.742 62.2184 180.742 62.5817 180.791 62.94C180.791 63.12 180.821 63.3 180.881 63.48L179.781 63.35L178.561 63.25L177.421 63.19H176.511C176.503 63.3032 176.503 63.4168 176.511 63.53V75.11C176.511 76.19 176.561 77.2234 176.661 78.21C176.358 78.1923 176.054 78.1923 175.751 78.21H173.501C173.198 78.1924 172.894 78.1924 172.591 78.21C172.657 77.1967 172.707 76.1634 172.741 75.11C172.774 74.0567 172.774 72.85 172.741 71.49V65.35C172.767 64.8767 172.777 64.4434 172.771 64.05Z" fill="#958166"/>
<path d="M188.039 72.36C189.238 72.36 190.209 71.3885 190.209 70.19C190.209 68.9916 189.238 68.02 188.039 68.02C186.841 68.02 185.869 68.9916 185.869 70.19C185.869 71.3885 186.841 72.36 188.039 72.36Z" fill="#958166"/>
<path d="M101.85 72.36C103.048 72.36 104.02 71.3885 104.02 70.19C104.02 68.9916 103.048 68.02 101.85 68.02C100.651 68.02 99.6797 68.9916 99.6797 70.19C99.6797 71.3885 100.651 72.36 101.85 72.36Z" fill="#958166"/>
<path fill-rule="evenodd" clip-rule="evenodd" d="M95.3203 46.79H96.6003L97.1903 46.74V50.59L98.3303 49.26L99.4003 48L100.4 46.76L100.79 46.81H101.42L101.73 46.76V46.86L99.7303 48.98L98.5203 50.3L101.86 55.07V55.24H100.01L97.2003 51.33V55.24H95.3403L95.3203 46.79ZM114.32 52.66L113.73 54.3L113.44 55.21H112.27L115.81 46.68H116.75L120.21 55.23H118.07L117.65 53.91L117.44 53.26L117.19 52.65L114.32 52.66ZM116.93 51.91L115.8 49L114.64 51.87L116.93 51.91ZM130.79 55.17V55C131.457 53.9667 132.207 52.7833 133.04 51.45L135.18 47.86V47.7H133.55L131.3 47.79V47.28C131.311 47.1937 131.311 47.1063 131.3 47.02V46.78H137.77V47C137.55 47.3267 137.25 47.8 136.87 48.42L136.28 49.35L134.86 51.76L133.47 54.18V54.31H135.84L137.76 54.24V54.75C137.748 54.853 137.748 54.957 137.76 55.06V55.27L130.79 55.17ZM151 51.68L150 49.87L148.34 46.79H150.58L151.66 49C151.88 49.46 152.03 49.77 152.11 49.92C152.199 50.1184 152.31 50.3062 152.44 50.48C152.805 49.9629 153.117 49.4101 153.37 48.83L154.3 46.83H155.5L154.61 48.38L153.72 49.91L152.9 51.47V55.27H151.03L151 51.68ZM166.83 46.79H168.06L169.83 48.69L171.64 50.62L173.41 52.56V46.79H174.4V55.24H173.34L171.25 52.91L170.2 51.76L169.2 50.67L167.85 49.27V55.27H166.85L166.83 46.79ZM187.75 52.66L187.16 54.3L186.87 55.21H185.7L189.24 46.68H190.18L193.64 55.23H191.5L191.08 53.91L190.87 53.26L190.62 52.65L187.75 52.66ZM190.36 51.91L189.28 49L188.12 51.87L190.36 51.91Z" fill="#112C4F"/>
<path fill-rule="evenodd" clip-rule="evenodd" d="M180.74 24.47L181.82 24.54L182.57 24.6H183.25L184.41 24.49V32.18C185.117 31.3667 185.87 30.4834 186.67 29.53C187.85 28.1234 188.56 27.27 188.8 26.97C189.18 26.5167 189.847 25.69 190.8 24.49L191.57 24.6H192.81L193.42 24.49V24.69L189.42 28.91L187.09 31.49L193.69 41V41.34H192.99L191.84 41.25H190.76L190 41.32L184.42 33.51V41.32H183.72L182.57 41.23H181.49L180.74 41.3V24.47ZM162.01 24.47L163.09 24.54L163.86 24.6H164.54L165.69 24.49V34.43C165.674 34.7398 165.674 35.0502 165.69 35.36C165.723 35.664 165.78 35.9649 165.86 36.26C165.929 36.7654 166.063 37.2596 166.26 37.73C166.464 38.1914 166.764 38.604 167.14 38.94C167.916 39.6572 168.944 40.0383 170 40C170.947 40.0518 171.888 39.8184 172.7 39.33C173.465 38.7302 174.038 37.9205 174.35 37C174.468 36.7159 174.558 36.4212 174.62 36.12C174.684 35.7468 174.714 35.3686 174.71 34.99L174.78 31.92V24.47L175.78 24.54L176.78 24.47V33.22C176.835 34.5628 176.718 35.9072 176.43 37.22C176.111 38.5273 175.302 39.662 174.17 40.39C173.532 40.858 172.808 41.1976 172.04 41.39C171.223 41.6181 170.379 41.7359 169.53 41.74C168.739 41.747 167.949 41.68 167.17 41.54C166.476 41.4092 165.803 41.1838 165.17 40.87C164.5 40.5602 163.905 40.1081 163.426 39.5452C162.948 38.9822 162.598 38.3219 162.4 37.61C162.269 37.1338 162.169 36.6494 162.1 36.16L162 34.5L162.01 24.47ZM150.35 32.39H151C153.147 32.39 154.22 31.21 154.22 28.85V28.24C154.204 28.0316 154.174 27.8244 154.13 27.62C154.083 27.2879 153.955 26.9723 153.758 26.7006C153.561 26.4288 153.301 26.209 153 26.06C152.389 25.8538 151.744 25.7655 151.1 25.8H150.39L150.35 32.39ZM146.67 24.47H151.9C153.01 24.47 153.84 24.47 154.39 24.54C154.914 24.5526 155.427 24.6971 155.88 24.96C156.543 25.2705 157.098 25.7709 157.476 26.3976C157.853 27.0244 158.036 27.7492 158 28.48C158.036 29.5249 157.68 30.5453 157 31.34C156.248 32.1459 155.262 32.6951 154.18 32.91C154.8 33.9767 155.694 35.4167 156.86 37.23L158.52 39.81L159.52 41.33L158.24 41.26H155.97L155.04 41.33L152.12 36.17L150.52 33.45H150.35V41.33H149.65L148.5 41.24H147.42L146.67 41.31V24.47ZM139.74 24.47L140.33 24.58H140.78L141.3 24.52L141.84 24.45C141.967 25.7434 142.107 26.9734 142.26 28.14C142.414 29.3067 142.51 30.1467 142.55 30.66L143.22 36.22C143.28 36.81 143.36 37.44 143.46 38.12C143.56 38.8 143.74 39.87 144 41.31L142.89 41.24H140.83L139.97 41.31C139.951 39.4878 139.827 37.6682 139.6 35.86L138.92 29.86L137 33.66L135.2 37.4L133.43 41.2H132.5L130.82 37.69L129 34L127.1 30.16L126.58 34.21L126.18 38.02L126.06 41.33L125.38 41.24H124.3L123.78 41.33L124.63 36.15L125.42 30.6L126.28 24.48L126.87 24.59H127.28C127.482 24.6005 127.684 24.5802 127.88 24.53L128.32 24.46C128.59 25.08 128.84 25.64 129.08 26.12L130.14 28.3L132.04 32.15L134 36L135.84 32.39L137.78 28.52L139.74 24.47ZM116.12 34.69L113.92 29L111.61 34.72L116.12 34.69ZM111 36.19L109.84 39.47L109.27 41.28L108.12 41.21L106.94 41.28L113.94 24.28L114.88 24.35L115.82 24.28L122.68 41.35L121.48 41.28H119.37L118.46 41.35L117.63 38.72L117.21 37.43C117.06 37.04 116.89 36.64 116.72 36.22L111 36.19ZM95.3203 43.05H193.69V44.52H95.3203V43.05ZM95.3203 21.15H193.69V22.62H95.3203V21.15ZM103.85 27.64C103.64 27.0225 103.263 26.4755 102.76 26.06C102.258 25.6723 101.635 25.474 101 25.5C100.275 25.4558 99.5607 25.6881 99.0003 26.15C98.7702 26.3816 98.5909 26.6586 98.4739 26.9634C98.3568 27.2681 98.3045 27.5939 98.3203 27.92C98.3203 28.7934 98.9603 29.59 100.24 30.31L103.86 32.31C104.473 32.7613 104.969 33.3526 105.306 34.0346C105.644 34.7165 105.813 35.4693 105.8 36.23C105.82 36.9747 105.668 37.7138 105.356 38.3902C105.043 39.0665 104.58 39.6618 104 40.13C102.67 41.1822 101.005 41.7216 99.3103 41.65C98.5979 41.6571 97.888 41.5662 97.2003 41.38C96.5354 41.2539 95.9048 40.9881 95.3503 40.6L95.7903 38.93L96.0003 37.48H96.4703C96.6151 38.2651 97.0331 38.9736 97.6503 39.48C98.2838 39.9714 99.069 40.2261 99.8703 40.2C100.595 40.2063 101.3 39.9665 101.87 39.52C102.148 39.2966 102.369 39.0107 102.515 38.6857C102.661 38.3608 102.728 38.0059 102.71 37.65C102.674 37.0809 102.475 36.534 102.139 36.0735C101.802 35.613 101.341 35.258 100.81 35.05L97.3003 33.18C96.6816 32.7289 96.1829 32.1329 95.8482 31.4442C95.5134 30.7556 95.3528 29.9953 95.3803 29.23C95.3578 28.5578 95.473 27.8882 95.7189 27.2622C95.9649 26.6362 96.3363 26.0671 96.8103 25.59C97.3842 25.0479 98.062 24.6275 98.8027 24.3543C99.5434 24.081 100.332 23.9605 101.12 24C101.909 23.9951 102.693 24.1202 103.44 24.37C104.012 24.5393 104.545 24.8178 105.01 25.19L104.59 26.37L104.22 27.63L103.85 27.64Z" fill="#958166"/>
<path d="M95.3199 43.05H193.69V44.52H95.3199V43.05ZM95.3199 57.79H193.69V59.26H95.3199V57.79ZM43.1699 27.23L28.1699 3.67L33.6099 3.36H35.1799C36.2873 3.3468 37.3931 3.44733 38.4799 3.66C38.8076 2.8386 39.3128 2.0998 39.9594 1.49646C40.6059 0.893113 41.3779 0.440156 42.2199 0.17H42.3399L43.0899 0L43.9999 0.17C44.8426 0.430999 45.6173 0.874589 46.2689 1.46918C46.9205 2.06377 47.433 2.79473 47.7699 3.61C48.8568 3.39747 49.9626 3.29694 51.0699 3.31H52.6399L58.0599 3.62L43.1699 27.23ZM30.7199 5L43.1699 24.52L55.5399 5L52.5399 4.83H51.0599C49.8713 4.80663 48.6847 4.93772 47.5299 5.22L46.9099 5.38L46.6699 4.79C46.4436 4.06014 46.0486 3.39379 45.517 2.84483C44.9854 2.29587 44.3321 1.87971 43.6099 1.63L43.0799 1.53L42.5899 1.63C41.8677 1.87971 41.2144 2.29587 40.6828 2.84483C40.1512 3.39379 39.7563 4.06014 39.5299 4.79L39.2899 5.38L38.6699 5.22C37.5151 4.9375 36.3285 4.8064 35.1399 4.83H33.6599L30.7199 5Z" fill="#958166"/>
<path fill-rule="evenodd" clip-rule="evenodd" d="M33.7891 6.55C38.2891 6.29 39.3591 7.29 40.4691 7.76C40.9991 5.19 41.8191 3.62 43.0991 3.25H43.1591C44.4391 3.62 45.2191 5.19 45.7891 7.76C46.9091 7.3 47.9991 6.29 52.4791 6.55L43.1591 21.26L33.7891 6.55Z" fill="#112C4F"/>
<path fill-rule="evenodd" clip-rule="evenodd" d="M47.0895 19.68L46.6895 24.56L47.3395 24.66L49.7395 15.49L47.0895 19.68ZM36.4595 15.35L38.6795 24.7L39.3295 24.6L38.9995 19.37L36.4595 15.35ZM70.3495 33.26L74.0894 31.32C73.6628 30.6133 73.2095 29.9166 72.7295 29.23L66.3395 34.1C67.7594 33.87 69.1095 33.57 70.3495 33.26ZM75.6495 42.24L78.3295 41.8C78.2094 41.29 78.0594 40.8 77.9194 40.26C77.2924 41.0553 76.5226 41.7268 75.6495 42.24ZM8.36945 40.2C8.21945 40.73 8.06945 41.26 7.93945 41.8L10.8895 42.36C9.91384 41.8152 9.05704 41.0808 8.36945 40.2ZM19.5095 34L13.5095 29.22C13.0361 29.8866 12.5861 30.5833 12.1595 31.31L15.4095 33.08C16.6795 33.43 18.0595 33.75 19.5095 34ZM41.6695 79C41.4843 78.8567 41.3074 78.7031 41.1395 78.54L39.9995 85.92C40.8195 85.9933 41.6495 86.0366 42.4895 86.05L42.3395 79.49L41.6695 79ZM44.5995 79L44.0995 79.37L43.7795 86.05C44.6061 86.05 45.4361 86.0066 46.2695 85.92L45.2695 78.37C45.0604 78.5946 44.8365 78.8051 44.5995 79Z" fill="#958166"/>
<path d="M54.31 8.28003L52.31 11.51C57.6411 12.7972 62.6474 15.176 67.0124 18.4963C71.3774 21.8165 75.0064 26.006 77.67 30.8L80 29.89V33.54C79.9968 34.1522 79.9533 34.7635 79.87 35.37C82.0037 40.7742 82.9189 46.5826 82.5505 52.381C82.182 58.1795 80.5388 63.8253 77.7382 68.9159C74.9375 74.0065 71.0483 78.4166 66.3479 81.8317C61.6474 85.2469 56.2514 87.5831 50.5445 88.6737C44.8376 89.7643 38.9604 89.5826 33.3319 88.1413C27.7033 86.7001 22.462 84.0349 17.9816 80.3358C13.5011 76.6366 9.89193 71.9946 7.41124 66.7407C4.93055 61.4867 3.63947 55.7502 3.63003 49.94C3.62758 44.9462 4.5779 39.9977 6.43003 35.36C6.3453 34.757 6.30186 34.149 6.30003 33.54V29.91L8.59003 30.81C11.2581 26.0088 14.8944 21.8142 19.2684 18.4919C23.6425 15.1696 28.659 12.7921 34 11.51L32 8.28003C21.8947 10.9909 13.1193 17.2826 7.30851 25.9832C1.49769 34.6839 -0.952325 45.2001 0.41483 55.573C1.78199 65.9459 6.87309 75.4682 14.7398 82.3661C22.6065 89.264 32.7124 93.0672 43.175 93.0672C53.6376 93.0672 63.7435 89.264 71.6103 82.3661C79.477 75.4682 84.5681 65.9459 85.9352 55.573C87.3024 45.2001 84.8524 34.6839 79.0415 25.9832C73.2307 17.2826 64.4553 10.9909 54.35 8.28003H54.31Z" fill="#958166"/>
</g>
<defs>
<clipPath id="clip0">
<rect width="193.69" height="93.07" fill="white"/>
</clipPath>
</defs>
</svg>
