<svg width="28" height="28" viewBox="0 0 28 28" fill="none" xmlns="http://www.w3.org/2000/svg">
<path d="M13.9885 2.33325C7.5485 2.33325 2.3335 7.55992 2.3335 13.9999C2.3335 20.4399 7.5485 25.6666 13.9885 25.6666C20.4402 25.6666 25.6668 20.4399 25.6668 13.9999C25.6668 7.55992 20.4402 2.33325 13.9885 2.33325ZM14.0002 23.3333C8.8435 23.3333 4.66683 19.1566 4.66683 13.9999C4.66683 8.84325 8.8435 4.66659 14.0002 4.66659C19.1568 4.66659 23.3335 8.84325 23.3335 13.9999C23.3335 19.1566 19.1568 23.3333 14.0002 23.3333Z" fill="#C8A27B"/>
<path d="M14.5835 8.16675H12.8335V15.1667L18.9585 18.8417L19.8335 17.4067L14.5835 14.2917V8.16675Z" fill="#C8A27B"/>
</svg>
