<svg width="14" height="16" viewBox="0 0 14 16" fill="none" xmlns="http://www.w3.org/2000/svg">
<path d="M12.6926 4.0145C11.9436 3.85428 11.2654 3.45901 10.7567 2.88632C10.2481 2.31362 9.93573 1.59343 9.8651 0.83075V0.5H7.28135V10.754C7.27976 11.208 7.13596 11.65 6.87017 12.018C6.60439 12.386 6.22997 12.6615 5.79954 12.8058C5.36911 12.95 4.9043 12.9558 4.47043 12.8222C4.03655 12.6887 3.65543 12.4226 3.38061 12.0612L3.37911 12.0605L3.38061 12.0612C3.10152 11.6939 2.9467 11.2472 2.9386 10.7859C2.93051 10.3246 3.06956 9.87274 3.33558 9.4958C3.60161 9.11887 3.98078 8.83647 4.41812 8.68956C4.85546 8.54265 5.32822 8.53886 5.76786 8.67875V6.05375C4.7875 5.91822 3.78929 6.09252 2.91287 6.55225C2.03644 7.01198 1.32563 7.73416 0.879864 8.61777C0.434093 9.50137 0.275658 10.5022 0.426718 11.4803C0.577778 12.4584 1.03078 13.3648 1.72236 14.0727C2.38187 14.7476 3.22752 15.2105 4.15135 15.4026C5.07517 15.5946 6.03527 15.507 6.90909 15.151C7.78291 14.7949 8.53081 14.1865 9.05731 13.4035C9.58382 12.6205 9.86505 11.6983 9.8651 10.7547V5.51525C10.9093 6.26175 12.1613 6.66203 13.4449 6.65975V4.0925C13.1921 4.09281 12.9399 4.06667 12.6926 4.0145Z" fill="#12181F"/>
</svg>
